<svg width="22" height="16" viewBox="0 0 22 16" fill="none" xmlns="http://www.w3.org/2000/svg">
    <path fill-rule="evenodd" clip-rule="evenodd" d="M11 0.5C6 0.5 1.73 3.61 0 8C1.73 12.39 6 15.5 11 15.5C16 15.5 20.27 12.39 22 8C20.27 3.61 16 0.5 11 0.5ZM11 13C8.23997 13 5.99997 10.76 5.99997 8C5.99997 5.24 8.23997 2.99999 11 2.99999C13.76 2.99999 16 5.24 16 8C16 10.76 13.76 13 11 13ZM11 5C9.33997 5 7.99997 6.34 7.99997 8C7.99997 9.66 9.33997 11 11 11C12.66 11 14 9.66 14 8C14 6.34 12.66 5 11 5Z" fill="#111e27"/>
</svg>