<svg width="108" height="108" viewBox="0 0 108 108" fill="none" xmlns="http://www.w3.org/2000/svg">
<path d="M54 108C83.8234 108 108 83.8234 108 54C108 24.1766 83.8234 0 54 0C24.1766 0 0 24.1766 0 54C0 83.8234 24.1766 108 54 108Z" fill="#D7D8EF"/>
<path d="M87.6248 61.2611C87.4338 61.2586 87.2513 61.1816 87.1162 61.0465C86.9811 60.9114 86.9041 60.7289 86.9016 60.5379V50.1429C86.9016 49.9511 86.9778 49.7671 87.1134 49.6315C87.2491 49.4958 87.433 49.4196 87.6248 49.4196C87.8166 49.4196 88.0006 49.4958 88.1362 49.6315C88.2718 49.7671 88.348 49.9511 88.348 50.1429V60.5475C88.3455 60.7376 88.2682 60.9191 88.1329 61.0527C87.9975 61.1862 87.815 61.2611 87.6248 61.2611Z" fill="#21268F"/>
<path d="M87.6248 46.9993C87.433 46.9993 87.2491 46.9231 87.1134 46.7875C86.9778 46.6519 86.9016 46.4679 86.9016 46.2761V44.145C86.9016 43.9532 86.9778 43.7693 87.1134 43.6336C87.2491 43.498 87.433 43.4218 87.6248 43.4218C87.8166 43.4218 88.0006 43.498 88.1362 43.6336C88.2718 43.7693 88.348 43.9532 88.348 44.145V46.2857C88.348 46.3803 88.3293 46.4738 88.2928 46.5611C88.2564 46.6483 88.2029 46.7274 88.1356 46.7938C88.0683 46.8601 87.9885 46.9125 87.9009 46.9478C87.8132 46.9831 87.7193 47.0006 87.6248 46.9993Z" fill="#21268F"/>
<path d="M29.0094 36.5656H25.0056C24.5912 36.5656 24.2549 36.2293 24.2549 35.8149C24.2549 35.4005 24.5912 35.0642 25.0056 35.0642H29.0094C29.4238 35.0642 29.7601 35.4005 29.7601 35.8149C29.7601 36.2293 29.4238 36.5656 29.0094 36.5656Z" fill="#21268F"/>
<path d="M27.0083 38.5677C26.5939 38.5677 26.2576 38.2313 26.2576 37.8169V33.8131C26.2576 33.3987 26.5939 33.0624 27.0083 33.0624C27.4227 33.0624 27.759 33.3987 27.759 33.8131V37.8169C27.759 38.2313 27.4227 38.5677 27.0083 38.5677Z" fill="#21268F"/>
<path d="M41.4642 82.9286C41.9965 82.9286 42.4285 83.3606 42.4285 83.8929C42.4285 84.4251 41.9965 84.8571 41.4642 84.8571C40.9319 84.8571 40.4999 84.4251 40.4999 83.8929C40.4999 83.3606 40.9319 82.9286 41.4642 82.9286Z" fill="#21268F"/>
<path d="M35.6785 82.9286C36.2108 82.9286 36.6428 83.3606 36.6428 83.8929C36.6428 84.4251 36.2108 84.8571 35.6785 84.8571C35.1463 84.8571 34.7143 84.4251 34.7143 83.8929C34.7143 83.3606 35.1463 82.9286 35.6785 82.9286Z" fill="#21268F"/>
<path d="M29.8929 82.9286C30.4252 82.9286 30.8572 83.3606 30.8572 83.8929C30.8572 84.4251 30.4252 84.8571 29.8929 84.8571C29.3606 84.8571 28.9286 84.4251 28.9286 83.8929C28.9286 83.3606 29.3606 82.9286 29.8929 82.9286Z" fill="#21268F"/>
<path d="M53.8477 26.1471L26.7356 48.4207L53.8477 70.7047L80.9597 48.4207L53.8477 26.1471Z" fill="#D7D8EF"/>
<path d="M53.8477 71.4866C53.6703 71.4716 53.504 71.394 53.3785 71.2676L26.2664 48.9836C26.1778 48.9098 26.1066 48.8173 26.0579 48.7127C26.0092 48.6082 25.9843 48.4941 25.9849 48.3788C25.9864 48.2638 26.0123 48.1504 26.0608 48.0462C26.1093 47.9419 26.1794 47.8492 26.2664 47.774L53.3785 25.5004C53.5219 25.3721 53.7075 25.3012 53.8999 25.3012C54.0923 25.3012 54.2779 25.3721 54.4213 25.5004L81.5333 47.774C81.6204 47.8492 81.6904 47.9419 81.739 48.0462C81.7875 48.1504 81.8134 48.2638 81.8149 48.3788C81.8155 48.4941 81.7905 48.6082 81.7418 48.7127C81.6932 48.8173 81.622 48.9098 81.5333 48.9836L54.4213 71.2676C54.3465 71.3425 54.2568 71.4007 54.1579 71.4384C54.0591 71.4762 53.9534 71.4926 53.8477 71.4866ZM27.9661 48.4205L53.8477 69.693L79.7293 48.4205L53.8477 27.1584L27.9661 48.4205Z" fill="#21268F"/>
<path d="M73.1392 32.4036H34.5566V78.2856H73.1392V32.4036Z" fill="#D7D8EF"/>
<path d="M62.3362 45.9597L49.1555 56.794V78.2856H73.1393V45.9597H62.3362Z" fill="#D7D8EF"/>
<path d="M62.3362 45.9597L49.1555 56.794V78.2856H73.1393V45.9597H62.3362Z" fill="#D7D8EF"/>
<path d="M73.1913 79.0675H34.6087C34.4022 79.0648 34.2048 78.9816 34.0587 78.8355C33.9126 78.6894 33.8294 78.492 33.8267 78.2855V32.4035C33.8321 32.1997 33.9169 32.0061 34.063 31.8639C34.2091 31.7217 34.4049 31.6422 34.6087 31.6423H73.1913C73.3987 31.6423 73.5976 31.7247 73.7443 31.8713C73.891 32.018 73.9734 32.2169 73.9734 32.4244V78.3063C73.9654 78.5092 73.8798 78.7014 73.7342 78.843C73.5887 78.9847 73.3944 79.065 73.1913 79.0675ZM35.3387 77.5242H72.3571V33.2064H35.3387V77.5242Z" fill="#21268F"/>
<path d="M66.3611 39.4423H54.192C53.9846 39.4423 53.7856 39.3598 53.639 39.2132C53.4923 39.0665 53.4099 38.8676 53.4099 38.6602C53.4099 38.4528 53.4923 38.2538 53.639 38.1072C53.7856 37.9605 53.9846 37.8781 54.192 37.8781H66.3611C66.5686 37.8781 66.7675 37.9605 66.9142 38.1072C67.0608 38.2538 67.1432 38.4528 67.1432 38.6602C67.1432 38.8676 67.0608 39.0665 66.9142 39.2132C66.7675 39.3598 66.5686 39.4423 66.3611 39.4423Z" fill="#21268F"/>
<path d="M50.0209 39.4423H41.3346C41.1271 39.4423 40.9282 39.3598 40.7816 39.2132C40.6349 39.0665 40.5525 38.8676 40.5525 38.6602C40.5525 38.4528 40.6349 38.2538 40.7816 38.1072C40.9282 37.9605 41.1271 37.8781 41.3346 37.8781H50.0209C50.2283 37.8781 50.4272 37.9605 50.5739 38.1072C50.7205 38.2538 50.8029 38.4528 50.8029 38.6602C50.8029 38.8676 50.7205 39.0665 50.5739 39.2132C50.4272 39.3598 50.2283 39.4423 50.0209 39.4423Z" fill="#21268F"/>
<path d="M66.3607 44.6561H58.3626C58.1552 44.6561 57.9563 44.5737 57.8096 44.427C57.663 44.2804 57.5806 44.0815 57.5806 43.8741C57.5806 43.6666 57.663 43.4677 57.8096 43.321C57.9563 43.1744 58.1552 43.092 58.3626 43.092H66.3607C66.5681 43.092 66.7671 43.1744 66.9137 43.321C67.0604 43.4677 67.1428 43.6666 67.1428 43.8741C67.1428 44.0815 67.0604 44.2804 66.9137 44.427C66.7671 44.5737 66.5681 44.6561 66.3607 44.6561Z" fill="#21268F"/>
<path d="M54.1919 44.6561H41.3346C41.1271 44.6561 40.9282 44.5737 40.7816 44.427C40.6349 44.2804 40.5525 44.0815 40.5525 43.8741C40.5525 43.6666 40.6349 43.4677 40.7816 43.321C40.9282 43.1744 41.1271 43.092 41.3346 43.092H54.1919C54.3994 43.092 54.5983 43.1744 54.745 43.321C54.8916 43.4677 54.974 43.6666 54.974 43.8741C54.974 44.0815 54.8916 44.2804 54.745 44.427C54.5983 44.5737 54.3994 44.6561 54.1919 44.6561Z" fill="#21268F"/>
<path d="M66.361 49.87H52.1063C51.8989 49.87 51.6999 49.7876 51.5533 49.6409C51.4066 49.4943 51.3242 49.2954 51.3242 49.088C51.3242 48.8805 51.4066 48.6816 51.5533 48.5349C51.6999 48.3883 51.8989 48.3059 52.1063 48.3059H66.361C66.5684 48.3059 66.7673 48.3883 66.914 48.5349C67.0607 48.6816 67.1431 48.8805 67.1431 49.088C67.1431 49.2954 67.0607 49.4943 66.914 49.6409C66.7673 49.7876 66.5684 49.87 66.361 49.87Z" fill="#21268F"/>
<path d="M47.9353 49.87H41.3346C41.1271 49.87 40.9282 49.7876 40.7816 49.6409C40.6349 49.4943 40.5525 49.2954 40.5525 49.088C40.5525 48.8805 40.6349 48.6816 40.7816 48.5349C40.9282 48.3883 41.1271 48.3059 41.3346 48.3059H47.9353C48.1427 48.3059 48.3417 48.3883 48.4883 48.5349C48.635 48.6816 48.7174 48.8805 48.7174 49.088C48.7174 49.2954 48.635 49.4943 48.4883 49.6409C48.3417 49.7876 48.1427 49.87 47.9353 49.87Z" fill="#21268F"/>
<path d="M66.3609 55.0839H59.4056C59.1982 55.0839 58.9993 55.0015 58.8526 54.8548C58.7059 54.7081 58.6235 54.5092 58.6235 54.3018C58.6235 54.0944 58.7059 53.8955 58.8526 53.7488C58.9993 53.6021 59.1982 53.5197 59.4056 53.5197H66.3609C66.5683 53.5197 66.7673 53.6021 66.9139 53.7488C67.0606 53.8955 67.143 54.0944 67.143 54.3018C67.143 54.5092 67.0606 54.7081 66.9139 54.8548C66.7673 55.0015 66.5683 55.0839 66.3609 55.0839Z" fill="#21268F"/>
<path d="M55.2347 55.0839H41.3346C41.1271 55.0839 40.9282 55.0015 40.7816 54.8548C40.6349 54.7081 40.5525 54.5092 40.5525 54.3018C40.5525 54.0944 40.6349 53.8955 40.7816 53.7488C40.9282 53.6021 41.1271 53.5197 41.3346 53.5197H55.2347C55.4421 53.5197 55.6411 53.6021 55.7877 53.7488C55.9344 53.8955 56.0168 54.0944 56.0168 54.3018C56.0168 54.5092 55.9344 54.7081 55.7877 54.8548C55.6411 55.0015 55.4421 55.0839 55.2347 55.0839Z" fill="#21268F"/>
<path d="M60.803 60.2978H46.8924C46.685 60.2978 46.4861 60.2153 46.3394 60.0687C46.1927 59.922 46.1104 59.7231 46.1104 59.5157C46.1104 59.3083 46.1927 59.1093 46.3394 58.9627C46.4861 58.816 46.685 58.7336 46.8924 58.7336H60.803C61.0104 58.7336 61.2094 58.816 61.356 58.9627C61.5027 59.1093 61.5851 59.3083 61.5851 59.5157C61.5851 59.7231 61.5027 59.922 61.356 60.0687C61.2094 60.2153 61.0104 60.2978 60.803 60.2978Z" fill="#21268F"/>
<path d="M26.7356 48.4205V78.2855L44.9007 63.353L26.7356 48.4205Z" fill="#D7D8EF"/>
<path d="M62.7949 63.353L80.96 78.2855V48.4205L62.7949 63.353Z" fill="#D7D8EF"/>
<path d="M53.8477 70.7046L44.9007 63.3531L26.7356 78.2856H80.9597L62.7946 63.3531L53.8477 70.7046Z" fill="#D7D8EF"/>
<path d="M31.9497 56.8043V73.9996L42.4087 65.4072L31.9497 56.8043Z" fill="#D7D8EF"/>
<path d="M31.9497 56.8043V73.9996L42.4087 65.4072L31.9497 56.8043Z" fill="#D7D8EF"/>
<path d="M71.0952 65.1153L80.9598 73.228V57.0129L71.0952 65.1153Z" fill="#D7D8EF"/>
<path d="M71.0952 65.1153L80.9598 73.228V57.0129L71.0952 65.1153Z" fill="#D7D8EF"/>
<path d="M26.7357 79.0676C26.6195 79.066 26.5053 79.0374 26.402 78.9841C26.2685 78.9225 26.1553 78.824 26.0759 78.7002C25.9964 78.5765 25.954 78.4326 25.9536 78.2855V48.4205C25.954 48.2734 25.9964 48.1295 26.0759 48.0057C26.1553 47.882 26.2685 47.7835 26.402 47.7219C26.5356 47.6566 26.685 47.6307 26.8328 47.6474C26.9805 47.664 27.1205 47.7224 27.2362 47.8157L45.4013 62.7482C45.4892 62.8226 45.5598 62.9152 45.6082 63.0197C45.6566 63.1241 45.6817 63.2379 45.6817 63.353C45.6817 63.4681 45.6566 63.5819 45.6082 63.6863C45.5598 63.7908 45.4892 63.8834 45.4013 63.9578L27.2362 78.8799C27.0971 79.0001 26.9196 79.0666 26.7357 79.0676ZM27.5178 50.0785V76.6275L43.6703 63.353L27.5178 50.0785Z" fill="#21268F"/>
<path d="M67.9773 67.6074L56.559 76.9923L48.5922 70.4437L39.0613 78.2854H80.9598L67.9773 67.6074Z" fill="#D7D8EF"/>
<path d="M67.9773 67.6074L56.559 76.9923L48.5922 70.4437L39.0613 78.2854H80.9598L67.9773 67.6074Z" fill="#D7D8EF"/>
<path d="M80.9601 79.0676C80.7763 79.0667 80.5988 79.0001 80.4596 78.8799L62.2945 63.9682C62.2067 63.8938 62.1361 63.8012 62.0877 63.6968C62.0392 63.5923 62.0142 63.4786 62.0142 63.3634C62.0142 63.2483 62.0392 63.1345 62.0877 63.0301C62.1361 62.9256 62.2067 62.833 62.2945 62.7586L80.4909 47.8157C80.6066 47.7224 80.7466 47.664 80.8944 47.6474C81.0421 47.6307 81.1915 47.6566 81.3251 47.7219C81.4587 47.7835 81.5718 47.882 81.6513 48.0057C81.7307 48.1295 81.7731 48.2734 81.7735 48.4205V78.2855C81.7731 78.4326 81.7307 78.5765 81.6513 78.7003C81.5718 78.824 81.4587 78.9225 81.3251 78.9841C81.2125 79.0423 81.0869 79.071 80.9601 79.0676ZM64.0255 63.353L80.1781 76.6275V50.0785L64.0255 63.353Z" fill="#21268F"/>
<path d="M80.9597 79.0676H26.7356C26.5737 79.0668 26.4159 79.0163 26.2836 78.9231C26.1512 78.8299 26.0506 78.6984 25.9952 78.5463C25.9429 78.3947 25.9379 78.2308 25.9807 78.0762C26.0235 77.9217 26.1122 77.7838 26.235 77.6807L44.4001 62.7482C44.5435 62.62 44.7291 62.5491 44.9215 62.5491C45.1139 62.5491 45.2995 62.62 45.4429 62.7482L53.8894 69.6931L62.3358 62.7482C62.4792 62.62 62.6648 62.5491 62.8572 62.5491C63.0496 62.5491 63.2352 62.62 63.3786 62.7482L81.5437 77.6807C81.6665 77.7838 81.7552 77.9217 81.798 78.0762C81.8408 78.2308 81.8358 78.3947 81.7835 78.5463C81.7239 78.7125 81.6105 78.8541 81.4613 78.9486C81.312 79.0431 81.1355 79.085 80.9597 79.0676ZM28.915 77.5243H78.7803L62.7633 64.3646L54.3169 71.3094C54.1735 71.4377 53.9879 71.5086 53.7955 71.5086C53.6031 71.5086 53.4175 71.4377 53.2741 71.3094L44.8277 64.3646L28.915 77.5243Z" fill="#21268F"/>
<path d="M52.1525 84.7799H48.1487C47.7343 84.7799 47.3979 84.4436 47.3979 84.0292C47.3979 83.6148 47.7343 83.2785 48.1487 83.2785H52.1525C52.5669 83.2785 52.9032 83.6148 52.9032 84.0292C52.9032 84.4436 52.5669 84.7799 52.1525 84.7799Z" fill="#21268F"/>
<path d="M50.1511 86.782C49.7367 86.782 49.4004 86.4456 49.4004 86.0312V82.0274C49.4004 81.613 49.7367 81.2767 50.1511 81.2767C50.5655 81.2767 50.9018 81.613 50.9018 82.0274V86.0312C50.9018 86.4456 50.5655 86.782 50.1511 86.782Z" fill="#21268F"/>
</svg>
